<?xml version="1.0" standalone="no"?>
<!DOCTYPE svg PUBLIC "-//W3C//DTD SVG 1.1//EN" "http://www.w3.org/Graphics/SVG/1.1/DTD/svg11.dtd" >
<!--
2013-9-30: Created.
-->
<svg>
<metadata>
Created by iconfont
</metadata>
<defs>

<font id="iconfont" horiz-adv-x="1024" >
  <font-face
    font-family="iconfont"
    font-weight="500"
    font-stretch="normal"
    units-per-em="1024"
    ascent="896"
    descent="-128"
  />
    <missing-glyph />
    
    <glyph glyph-name="laserPointer" unicode="&#58919;" d="M974.60536 711.131171l-130.563611 130.56361c-12.99859 12.99859-32.352045 20.508886-52.860931 20.508886s-39.573484-7.510296-52.860931-20.508886L413.066291 516.152327c-14.15402-14.15402-21.953173-32.92976-21.953174-52.860931s7.799154-38.706911 21.953174-52.860931l32.063187-32.063187-92.723272-93.300987c-4.910578 0.866573-9.821157 1.444288-14.442877 1.444287-45.350635 0-82.324401-36.973766-82.324401-82.3244s36.973766-82.035543 82.324401-82.035543 82.324401 36.973766 82.3244 82.035543c0 4.621721-0.577715 9.243441-1.444288 14.442877l92.723273 93.300987 32.063187-32.063187c28.019182-28.019182 77.70268-28.019182 105.721862 0l325.542454 325.542454a74.294161 74.294161 0 0 1-0.288857 105.721862z m-79.724683-52.860931L596.201975 359.880395l-103.411002 103.411001L791.180818 761.970099l103.699859-103.699859zM184.002257 194.07616399999995H68.170381c-9.532299 0-17.042595 7.510296-17.042595 17.042595 0 9.532299 7.510296 17.042595 17.042595 17.042595h115.831876c9.532299 0 17.042595-7.510296 17.042595-17.042595 0-9.532299-7.510296-17.042595-17.042595-17.042595zM594.757687 194.07616399999995h-115.831876c-9.532299 0-17.042595 7.510296-17.042595 17.042595 0 9.532299 7.510296 17.042595 17.042595 17.042595h115.831876c9.532299 0 17.042595-7.510296 17.042595-17.042595 0-9.532299-7.510296-17.042595-17.042595-17.042595zM314.565867 358.436107V474.267983c0 9.532299 7.510296 17.042595 17.042596 17.042595 9.532299 0 17.042595-7.510296 17.042595-17.042595v-115.831876a17.071481 17.071481 0 0 0-34.085191 0zM314.565867-52.319323000000054v115.831876c0 9.532299 7.510296 17.042595 17.042596 17.042595 9.532299 0 17.042595-7.510296 17.042595-17.042595v-115.831876c0-9.532299-7.510296-17.042595-17.042595-17.042595-9.532299 0-17.042595 7.510296-17.042596 17.042595zM215.198872 303.264316l-47.950353 47.950353a16.898166 16.898166 0 0 0 0 23.975176c6.643724 6.643724 17.331453 6.643724 23.975176 0l47.950353-47.950353c6.643724-6.643724 6.643724-17.331453 0-23.975176-6.643724-6.643724-17.331453-6.643724-23.975176 0zM472.570945 45.89224300000001l-48.816925 48.816925a16.898166 16.898166 0 0 0 0 23.975176c6.643724 6.643724 17.331453 6.643724 23.975176 0l48.816925-48.816925c6.643724-6.643724 6.643724-17.331453 0-23.975176-6.354866-6.643724-17.331453-6.643724-23.975176 0zM239.174048 94.70916799999998l-48.23921-48.23921c-6.643724-6.643724-17.331453-6.643724-23.975177 0a16.898166 16.898166 0 0 0 0 23.975176l48.239211 48.23921c6.643724 6.643724 17.331453 6.643724 23.975176 0 6.643724-6.643724 6.643724-17.331453 0-23.975176z"  horiz-adv-x="1024" />

    
    <glyph glyph-name="close" unicode="&#58975;" d="M925.468404 73.70593099999996L622.19831 383.99386000000004l303.311027 310.331931c34.682917 27.842115 38.299281 75.80243 8.121981 107.216907-30.135344 31.369452-82.733283 34.259268-117.408013 6.463202L512.000512 496.74276 207.776695 808.006923c-34.675754 27.796066-87.272669 24.90625-117.408013-6.463202-30.178323-31.414477-26.560936-79.375815 8.121981-107.216907l303.311027-310.331931L98.531596 73.70593099999996c-34.724873-27.820626-38.341237-75.846432-8.117888-107.195418 30.135344-31.43699 82.72919-34.326806 117.408013-6.485715l304.178791 311.219137 304.177767-311.219137c34.678824-27.841092 87.271646-24.951275 117.408013 6.485715C963.808618-2.140500999999972 960.146205 45.886329000000046 925.468404 73.70593099999996z"  horiz-adv-x="1024" />

    
    <glyph glyph-name="arrow-left2" unicode="&#58906;" d="M402.752 18.752l-320 320a64 64 0 0 0 0 90.496l320 320a64 64 0 1 0 90.496-90.496L282.496 448H896a64 64 0 1 0 0-128H282.496l210.752-210.752c12.48-12.48 18.752-28.864 18.752-45.248s-6.24-32.768-18.752-45.248a64 64 0 0 0-90.496 0z"  horiz-adv-x="1024" />

    
    <glyph glyph-name="arrow-right2" unicode="&#58907;" d="M621.248 18.752l320 320a64 64 0 0 1 0 90.496l-320 320a64 64 0 1 1-90.496-90.496L741.504 448H128a64 64 0 1 1 0-128h613.504l-210.752-210.752c-12.48-12.48-18.752-28.864-18.752-45.248s6.24-32.768 18.752-45.248a64 64 0 0 1 90.496 0z"  horiz-adv-x="1024" />

    
    <glyph glyph-name="android" unicode="&#58908;" d="M895.98704 511.978401c-35.198812 0-63.99784-28.799028-63.99784-63.99784v-255.991361c0-35.198812 28.799028-63.99784 63.99784-63.99784s63.99784 28.799028 63.997841 63.99784v255.991361c0 35.198812-28.799028 63.99784-63.997841 63.99784zM128.01296 511.978401c-35.198812 0-63.99784-28.799028-63.997841-63.99784v-255.991361c0-35.198812 28.799028-63.99784 63.997841-63.99784s63.99784 28.799028 63.99784 63.99784v255.991361c0 35.198812-28.799028 63.99784-63.99784 63.99784z m95.99676-351.988121a95.99676 95.99676 0 0 1 95.99676-95.99676v-127.99568c0-35.198812 28.799028-63.99784 63.99784-63.99784s63.99784 28.799028 63.99784 63.99784v127.99568h127.99568v-127.99568c0-35.198812 28.799028-63.99784 63.99784-63.99784s63.99784 28.799028 63.99784 63.99784v127.99568a95.99676 95.99676 0 0 1 95.99676 95.99676V511.978401H224.00972v-351.988121zM798.198341 575.976241a287.798287 287.798287 0 0 1-129.627625 209.624925l32.030919 64.029839a31.99892 31.99892 0 0 1-57.246068 28.639033l-32.126916-64.28583-8.351718 3.327888C574.301897 826.815775 543.742929 831.967601 512 831.967601s-62.301897-5.151826-90.876933-14.655505l-8.351718-3.327888L380.644433 878.270038a31.99892 31.99892 0 0 1-57.246068-28.639033l32.030919-64.029839A287.862285 287.862285 0 0 1 225.801659 575.976241v-31.99892H799.99028v31.99892h-1.791939zM416.00324 639.974081a31.99892 31.99892 0 0 0-0.063998 63.99784h0.159995a31.99892 31.99892 0 0 0-0.063998-63.99784z m191.99352 0a31.99892 31.99892 0 0 0-0.063998 63.99784h0.159995a31.99892 31.99892 0 0 0-0.063998-63.99784z"  horiz-adv-x="1024" />

    
    <glyph glyph-name="checkbox-unchecked" unicode="&#58909;" d="M896 896H128C57.6 896 0 838.4 0 768v-768c0-70.4 57.6-128 128-128h768c70.4 0 128 57.6 128 128V768c0 70.4-57.6 128-128 128z m0-896H128V768h768v-768z"  horiz-adv-x="1024" />

    
    <glyph glyph-name="check" unicode="&#58910;" d="M954.848 572.576q0-22.848-16-38.848L447.424 42.304q-16-16-38.848-16t-38.848 16l-284.576 284.576q-16 16-16 38.848t16 38.848l77.728 77.728q16 16 38.848 16t38.848-16l168-168.576L783.424 689.152q16 16 38.848 16t38.848-16l77.728-77.728q16-16 16-38.848z"  horiz-adv-x="1024" />

    
    <glyph glyph-name="circle1" unicode="&#58911;" d="M512-85.344C252.8-85.344 42.656 124.8 42.656 384S252.768 853.344 512 853.344c259.2 0 469.344-210.112 469.344-469.344S771.232-85.344 512-85.344zM512 0c212.064 0 384 171.936 384 384S724.064 768 512 768 128 596.064 128 384s171.936-384 384-384z"  horiz-adv-x="1024" />

    
    <glyph glyph-name="circle-left" unicode="&#58912;" d="M592.576 98.848l58.272 58.272q10.848 10.848 10.848 25.728t-10.848 25.728L475.424 384l175.424 175.424q10.848 10.848 10.848 25.728t-10.848 25.728l-58.272 58.272q-10.848 10.848-25.728 10.848t-25.728-10.848l-259.424-259.424q-10.848-10.848-10.848-25.728t10.848-25.728l259.424-259.424q10.848-10.848 25.728-10.848t25.728 10.848zM950.848 384q0-119.424-58.848-220.288t-159.712-159.712T512-54.848t-220.288 58.848-159.712 159.712T73.152 384t58.848 220.288 159.712 159.712T512 822.848t220.288-58.848 159.712-159.712T950.848 384z"  horiz-adv-x="1024" />

    
    <glyph glyph-name="enlarge1" unicode="&#58913;" d="M1024 896H608l160-160-192-192 96-96 192 192 160-160zM1024-128V288l-160-160-192 192-96-96 192-192-160-160zM0-128h416l-160 160 192 192-96 96-192-192-160 160zM0 896v-416l160 160 192-192 96 96-192 192 160 160z"  horiz-adv-x="1024" />

    
    <glyph glyph-name="cross" unicode="&#58914;" d="M1014.573167 73.347824L703.950268 383.970723l310.622899 310.622899a31.99659 31.99659 0 0 1 0 45.243179L867.836804 886.573165a31.99659 31.99659 0 0 1-45.243179 0.031996L511.970726 575.982262 201.347827 886.605161a31.932597 31.932597 0 0 1-45.243179-0.031996L9.368284 739.836801a31.99659 31.99659 0 0 1 0-45.243179L319.991184 383.970723 9.368284 73.347824a31.964594 31.964594 0 0 1 0-45.243179l146.736364-146.736363a31.99659 31.99659 0 0 1 45.243179 0L511.970726 191.991181l310.622899-310.622899a31.99659 31.99659 0 0 1 45.243179 0l146.736363 146.736363a31.964594 31.964594 0 0 1 0 45.243179z"  horiz-adv-x="1024" />

    
    <glyph glyph-name="checkmark" unicode="&#58915;" d="M864 768L384 288l-224 224-160-160 384-384L1024 608z"  horiz-adv-x="1024" />

    
    <glyph glyph-name="circle-right" unicode="&#58916;" d="M482.848 98.848l259.424 259.424q10.848 10.848 10.848 25.728t-10.848 25.728l-259.424 259.424q-10.848 10.848-25.728 10.848t-25.728-10.848L373.12 610.88q-10.848-10.848-10.848-25.728t10.848-25.728L548.544 384l-175.424-175.424q-10.848-10.848-10.848-25.728t10.848-25.728l58.272-58.272q10.848-10.848 25.728-10.848t25.728 10.848zM950.848 384q0-119.424-58.848-220.288t-159.712-159.712T512-54.848t-220.288 58.848-159.712 159.712T73.152 384t58.848 220.288 159.712 159.712T512 822.848t220.288-58.848 159.712-159.712T950.848 384z"  horiz-adv-x="1024" />

    
    <glyph glyph-name="exit" unicode="&#58917;" d="M768 256v128H448v128h320V640l192-192z m-64 64v-256H384v-192L0 64V896h704v-320h-64V832H128l256-128v-576h256v192z"  horiz-adv-x="1024" />

    
    <glyph glyph-name="angle-double-left" unicode="&#58918;" d="M577.728 109.728q0-7.424-5.728-13.152l-28.576-28.576q-5.728-5.728-13.152-5.728t-13.152 5.728l-266.272 266.272q-5.728 5.728-5.728 13.152t5.728 13.152l266.272 266.272q5.728 5.728 13.152 5.728t13.152-5.728l28.576-28.576q5.728-5.728 5.728-13.152t-5.728-13.152l-224.576-224.576 224.576-224.576q5.728-5.728 5.728-13.152z m219.424 0q0-7.424-5.728-13.152l-28.576-28.576q-5.728-5.728-13.152-5.728t-13.152 5.728l-266.272 266.272q-5.728 5.728-5.728 13.152t5.728 13.152l266.272 266.272q5.728 5.728 13.152 5.728t13.152-5.728l28.576-28.576q5.728-5.728 5.728-13.152t-5.728-13.152l-224.576-224.576 224.576-224.576q5.728-5.728 5.728-13.152z"  horiz-adv-x="1024" />

    
    <glyph glyph-name="enlarge" unicode="&#58920;" d="M1024 896v-416l-160 160-192-192-96 96 192 192-160 160zM448 224l-192-192 160-160H0V288l160-160 192 192z"  horiz-adv-x="1024" />

    
    <glyph glyph-name="angle-double-right" unicode="&#58921;" d="M559.424 347.424q0-7.424-5.728-13.152l-266.272-266.272q-5.728-5.728-13.152-5.728t-13.152 5.728l-28.576 28.576q-5.728 5.728-5.728 13.152t5.728 13.152l224.576 224.576-224.576 224.576q-5.728 5.728-5.728 13.152t5.728 13.152l28.576 28.576q5.728 5.728 13.152 5.728t13.152-5.728l266.272-266.272q5.728-5.728 5.728-13.152z m219.424 0q0-7.424-5.728-13.152l-266.272-266.272q-5.728-5.728-13.152-5.728t-13.152 5.728l-28.576 28.576q-5.728 5.728-5.728 13.152t5.728 13.152l224.576 224.576-224.576 224.576q-5.728 5.728-5.728 13.152t5.728 13.152l28.576 28.576q5.728 5.728 13.152 5.728t13.152-5.728l266.272-266.272q5.728-5.728 5.728-13.152z"  horiz-adv-x="1024" />

    
    <glyph glyph-name="circle-thin" unicode="&#58922;" d="M512 749.728q-74.272 0-142.016-29.152T253.408 642.56t-78.016-116.576-29.152-142.016 29.152-142.016 78.016-116.576 116.576-78.016 142.016-29.152 142.016 29.152 116.576 78.016 78.016 116.576 29.152 142.016-29.152 142.016-78.016 116.576-116.576 78.016T512 749.728zM950.848 384q0-119.424-58.848-220.288t-159.712-159.712T512-54.848t-220.288 58.848-159.712 159.712T73.152 384t58.848 220.288 159.712 159.712T512 822.848t220.288-58.848 159.712-159.712T950.848 384z"  horiz-adv-x="1024" />

    
    <glyph glyph-name="lock" unicode="&#58923;" d="M592 448H576V640c0 105.856-86.144 192-192 192H256C150.144 832 64 745.856 64 640v-192h-16c-26.4 0-48-21.6-48-48v-480c0-26.4 21.6-48 48-48h544c26.4 0 48 21.6 48 48v480c0 26.4-21.6 48-48 48zM192 640c0 35.296 28.704 64 64 64h128c35.296 0 64-28.704 64-64v-192H192V640z"  horiz-adv-x="1024" />

    
    <glyph glyph-name="desktop" unicode="&#58924;" d="M1060.576 329.152V804.576q0 7.424-5.44 12.864t-12.864 5.44H128q-7.424 0-12.864-5.44t-5.44-12.864v-475.424q0-7.424 5.44-12.864t12.864-5.44h914.272q7.424 0 12.864 5.44t5.44 12.864z m73.152 475.424v-621.728q0-37.728-26.848-64.576t-64.576-26.848h-310.848q0-21.152 9.152-44.288t18.272-40.576 9.152-24.864q0-14.848-10.848-25.728t-25.728-10.848h-292.576q-14.848 0-25.728 10.848t-10.848 25.728q0 8 9.152 25.152t18.272 40 9.152 44.576H128.032q-37.728 0-64.576 26.848t-26.848 64.576V804.576q0 37.728 26.848 64.576T128.032 896h914.272q37.728 0 64.576-26.848t26.848-64.576z"  horiz-adv-x="1184" />

    
    <glyph glyph-name="delete" unicode="&#58925;" d="M402.288 475.424v-329.152c0-10.272-8-18.272-18.272-18.272H347.44a18.048 18.048 0 0 0-18.272 18.272V475.424c0 10.272 8 18.272 18.272 18.272h36.576c10.272 0 18.272-8 18.272-18.272z m146.272 0v-329.152c0-10.272-8-18.272-18.272-18.272H493.712a18.048 18.048 0 0 0-18.272 18.272V475.424c0 10.272 8 18.272 18.272 18.272h36.576c10.272 0 18.272-8 18.272-18.272z m146.304 0v-329.152c0-10.272-8-18.272-18.272-18.272h-36.576a18.048 18.048 0 0 0-18.272 18.272V475.424c0 10.272 8 18.272 18.272 18.272h36.576c10.272 0 18.272-8 18.272-18.272z m73.12-413.696V603.456h-512v-541.728c0-27.424 15.424-43.424 18.272-43.424h475.424c2.848 0 18.272 16 18.272 43.424z m-384 614.848h256l-27.424 66.848a21.888 21.888 0 0 1-9.728 6.272H421.68a19.456 19.456 0 0 1-9.728-6.272z m530.304-18.304v-36.576c0-10.272-8-18.272-18.272-18.272h-54.848v-541.728c0-62.848-41.152-116.576-91.424-116.576H274.32c-50.272 0-91.424 51.424-91.424 114.272v544H128.048a18.048 18.048 0 0 0-18.272 18.272V658.24c0 10.272 8 18.272 18.272 18.272h176.576l40 95.424c11.424 28 45.728 50.848 76 50.848h182.848c30.272 0 64.576-22.848 76-50.848l40-95.424h176.576c10.272 0 18.272-8 18.272-18.272z"  horiz-adv-x="1024" />

    
    <glyph glyph-name="circle-down" unicode="&#58926;" d="M537.728 153.728l259.424 259.424q10.848 10.848 10.848 25.728t-10.848 25.728L738.88 522.88q-10.848 10.848-25.728 10.848t-25.728-10.848L512 347.456l-175.424 175.424q-10.848 10.848-25.728 10.848t-25.728-10.848l-58.272-58.272q-10.848-10.848-10.848-25.728t10.848-25.728l259.424-259.424q10.848-10.848 25.728-10.848t25.728 10.848zM950.848 384q0-119.424-58.848-220.288t-159.712-159.712T512-54.848t-220.288 58.848-159.712 159.712T73.152 384t58.848 220.288 159.712 159.712T512 822.848t220.288-58.848 159.712-159.712T950.848 384z"  horiz-adv-x="1024" />

    
    <glyph glyph-name="bubbles" unicode="&#58927;" d="M1088-5.152a116.8 116.8 0 0 1 64-104.192v-15.936a237.44 237.44 0 0 0-205.248 72.032c-26.208-6.976-54.016-10.752-82.784-10.752-159.072 0-288 114.624-288 256s128.928 256 288 256 288-114.624 288-256c0-55.36-19.776-106.592-53.344-148.48a116.32 116.32 0 0 1-10.656-48.704zM512 896c278.464 0 504.992-180.608 511.84-405.504A392.384 392.384 0 0 1 864 524c-95.552 0-185.824-33.44-254.144-94.176-70.848-62.976-109.856-147.424-109.856-237.824 0-44.672 9.536-87.904 27.744-127.776a629.12 629.12 0 0 0-95.584 4.832C322.176-40.928 190.912-60.64 64-63.552v26.912C132.544-3.072 192 58.112 192 128c0 9.76-0.768 19.328-2.176 28.704C74.016 232.96 0 349.472 0 480 0 709.76 229.216 896 512 896z"  horiz-adv-x="1152" />

    
    <glyph glyph-name="files-empty" unicode="&#58928;" d="M917.792 538.912c-22.208 30.304-53.184 65.696-87.168 99.712s-69.408 64.96-99.712 87.168C679.328 763.616 654.336 768 640 768H272A80.096 80.096 0 0 1 192 688v-736C192-92.096 227.872-128 272-128h608c44.096 0 80 35.904 80 80V448c0 14.336-4.384 39.36-42.208 90.912z m-132.416 54.464A874.688 874.688 0 0 0 857.952 512H704V665.952a874.688 874.688 0 0 0 81.376-72.576zM896-48c0-8.672-7.328-16-16-16h-608a16.224 16.224 0 0 0-16 16v736c0 8.672 7.328 16 16 16H640v-224a32 32 0 0 1 32-32h224v-496zM602.912 853.792C551.328 891.616 526.336 896 512 896H144A80.096 80.096 0 0 1 64 816v-736c0-38.624 27.52-70.944 64-78.4V816c0 8.672 7.328 16 16 16h486.88a635.936 635.936 0 0 1-27.936 21.792z"  horiz-adv-x="1024" />

    
    <glyph glyph-name="clock" unicode="&#58929;" d="M658.752 146.752L448 357.504V640h128v-229.504l173.248-173.248zM512 896C229.216 896 0 666.784 0 384s229.216-512 512-512 512 229.216 512 512S794.784 896 512 896z m0-896C299.936 0 128 171.936 128 384S299.936 768 512 768s384-171.936 384-384-171.936-384-384-384z"  horiz-adv-x="1024" />

    
    <glyph glyph-name="ellipsis-v" unicode="&#58930;" d="M621.728 182.848v-109.728q0-22.848-16-38.848t-38.848-16h-109.728q-22.848 0-38.848 16t-16 38.848v109.728q0 22.848 16 38.848t38.848 16h109.728q22.848 0 38.848-16t16-38.848z m0 292.576v-109.728q0-22.848-16-38.848t-38.848-16h-109.728q-22.848 0-38.848 16t-16 38.848v109.728q0 22.848 16 38.848t38.848 16h109.728q22.848 0 38.848-16t16-38.848z m0 292.576v-109.728q0-22.848-16-38.848t-38.848-16h-109.728q-22.848 0-38.848 16t-16 38.848V768q0 22.848 16 38.848t38.848 16h109.728q22.848 0 38.848-16t16-38.848z"  horiz-adv-x="1024" />

    
    <glyph glyph-name="ios" unicode="&#58931;" d="M791.488 351.904c-1.28 129.696 105.76 191.872 110.528 194.976-60.16 88.032-153.856 100.064-187.232 101.472-79.744 8.064-155.584-46.944-196.064-46.944-40.352 0-102.816 45.76-168.96 44.544-86.912-1.28-167.072-50.528-211.808-128.384-90.304-156.704-23.136-388.832 64.896-515.936 43.008-62.208 94.304-132.064 161.632-129.568 64.832 2.592 89.376 41.952 167.744 41.952s100.416-41.952 169.056-40.672c69.76 1.312 113.984 63.392 156.704 125.792 49.376 72.16 69.728 142.048 70.912 145.632-1.536 0.704-136.064 52.224-137.408 207.136zM662.56 732.48C698.304 775.84 722.432 836 715.84 896c-51.488-2.112-113.888-34.304-150.816-77.536-33.152-38.368-62.144-99.616-54.368-158.432 57.472-4.48 116.128 29.216 151.904 72.448z"  horiz-adv-x="1024" />

    
    <glyph glyph-name="new-tab" unicode="&#58932;" d="M192 832v-768h768V832H192z m704-704H256V768h640v-640zM128 0V672L64 736v-800h800l-64 64H128zM352 640l160-160-192-192 96-96 192 192 160-160V640z"  horiz-adv-x="1024" />

    
    <glyph glyph-name="eye-blocked" unicode="&#58933;" d="M947.15072 881.952a48 48 0 0 1-67.872 0l-202.176-202.176A564.032 564.032 0 0 1 513.19872 704C289.87072 704 96.30272 573.952 1.19872 384a586.336 586.336 0 0 1 173.024-207.104L15.24672 17.92a48 48 0 1 1 67.904-67.872l864 864a48 48 0 0 1 0 67.872zM417.19872 576a96 96 0 0 0 90.912-65.184l-121.728-121.728A96 96 0 0 0 417.19872 576z m-305.888-192a487.136 487.136 0 0 0 161.312 157.6A255.52 255.52 0 0 1 257.19872 454.016c0-54.88 17.28-105.728 46.688-147.424l-60.928-60.928A487.008 487.008 0 0 0 111.31072 384zM769.19872 453.984c0 27.168-4.256 53.344-12.096 77.888L435.31072 210.08a256 256 0 0 1 333.92 243.904zM831.21472 606.016L761.83872 536.64l3.776-2.368a486.784 486.784 0 0 0 149.44-150.304 487.136 487.136 0 0 0-149.44-150.304 468.544 468.544 0 0 0-366.4-59.648l-76.896-76.896a562.784 562.784 0 0 1 190.848-33.152c223.296 0 416.864 130.048 512 320a585.344 585.344 0 0 1-193.984 222.016z"  horiz-adv-x="1025" />

    
    <glyph glyph-name="instagram" unicode="&#58934;" d="M512 803.808c136.8 0 152.992-0.608 206.784-3.008 50.016-2.208 76.992-10.592 95.008-17.6a158.464 158.464 0 0 0 58.784-38.208 160.48 160.48 0 0 0 38.4-58.816c7.008-18.016 15.392-45.184 17.6-95.008 2.4-54.016 3.008-70.208 3.008-206.816s-0.608-152.992-3.008-206.816c-2.208-50.016-10.592-76.992-17.6-95.008a158.08 158.08 0 0 0-38.208-58.784 160.64 160.64 0 0 0-58.784-38.4c-18.016-7.008-45.216-15.392-95.008-17.6-54.016-2.4-70.208-3.008-206.816-3.008s-152.992 0.608-206.816 3.008c-50.016 2.208-76.992 10.592-95.008 17.6a158.464 158.464 0 0 0-58.816 38.208 160.64 160.64 0 0 0-38.4 58.784c-7.008 18.016-15.392 45.216-17.6 95.008-2.4 54.016-3.008 70.208-3.008 206.816s0.608 152.992 3.008 206.816c2.208 50.016 10.592 76.992 17.6 95.008a158.848 158.848 0 0 0 38.208 58.816 160.48 160.48 0 0 0 58.816 38.4c18.016 7.008 45.184 15.392 95.008 17.6 53.792 2.4 70.016 3.008 206.816 3.008zM512 896c-139.008 0-156.384-0.608-211.008-3.008-54.4-2.4-91.808-11.2-124.192-23.808-33.792-13.184-62.4-30.592-90.784-59.2a250.656 250.656 0 0 1-59.2-90.592C14.208 686.784 5.408 649.6 3.008 595.2 0.608 540.384 0 523.008 0 384s0.608-156.384 3.008-211.008c2.4-54.4 11.2-91.808 23.808-124.192 13.216-33.792 30.592-62.4 59.2-90.784a250.24 250.24 0 0 1 90.592-59.008c32.608-12.608 69.792-21.408 124.192-23.808 54.592-2.4 72-3.008 211.008-3.008s156.416 0.608 211.008 3.008c54.4 2.4 91.808 11.2 124.192 23.808 33.6 12.992 62.208 30.592 90.592 59.008s46.016 56.992 59.008 90.592c12.608 32.608 21.408 69.792 23.808 124.192 2.4 54.592 3.008 72 3.008 211.008s-0.608 156.384-3.008 211.008c-2.4 54.4-11.2 91.808-23.808 124.192a240.192 240.192 0 0 1-58.592 91.008A250.24 250.24 0 0 1 847.424 869.024C814.816 881.632 777.632 890.432 723.232 892.832c-54.784 2.592-72.192 3.2-211.2 3.2zM512 647.008c-145.184 0-263.008-117.792-263.008-263.008s117.792-263.008 263.008-263.008 263.008 117.792 263.008 263.008A263.072 263.072 0 0 1 512 647.008z m0-433.6a170.592 170.592 0 1 0 0 341.216 170.592 170.592 0 0 0 0-341.216zM846.784 657.408a61.408 61.408 0 1 0-122.816 0 61.408 61.408 0 0 0 122.816 0z"  horiz-adv-x="1024" />

    
    <glyph glyph-name="next2" unicode="&#58935;" d="M768 768v-768h-128V352L320 32V736l320-320V768z"  horiz-adv-x="1024" />

    
    <glyph glyph-name="bold" unicode="&#58936;" d="M707.872 411.36A254.88 254.88 0 0 1 768 576c0 141.152-114.848 256-256 256H192v-896h384c141.152 0 256 114.848 256 256a256.096 256.096 0 0 1-124.128 219.36zM384 704h101.504c55.968 0 101.504-57.408 101.504-128s-45.536-128-101.504-128H384V704z m159.008-640H384v256h159.008c58.464 0 106.016-57.408 106.016-128s-47.552-128-106.016-128z"  horiz-adv-x="1024" />

    
    <glyph glyph-name="hand-o-left" unicode="&#58937;" d="M786.272 91.424h18.272V457.152h-18.272q-20 0-38.56 6.848t-35.712 21.152-28.576 26.272-28 30.848q-4.576 5.152-6.848 8-41.152 46.272-64 82.848-8 12.576-21.728 38.848-0.576 1.728-6.016 12.864t-10.56 20.576-11.424 20.288-12.288 17.44-10.56 6.56q-40.576 0-66.016-17.44t-25.44-55.712q0-24.576 8.576-48.288t18.848-38.848 18.848-31.424 8.576-27.712H146.24q-28.576 0-50.848-22.016t-22.272-51.136q0-29.728 21.728-51.424t51.424-21.728h189.152q-8.576-9.728-14.272-27.136t-5.728-31.712q0-39.424 30.272-68-10.272-18.272-10.272-39.424t10.016-42.016 27.136-30.016q-2.272-13.728-2.272-32 0-48.576 27.712-72t77.44-23.424q48 0 104.576 18.272t110.848 36.576 95.424 18.272zM950.848 128q0 14.848-10.848 25.728t-25.728 10.848-25.728-10.848-10.848-25.728 10.848-25.728 25.728-10.848 25.728 10.848 10.848 25.728zM1024 457.152v-365.728q0-30.272-21.44-51.712t-51.712-21.44h-164.576q-33.728 0-127.424-33.728-108.576-39.424-181.152-39.424-81.152 0-131.424 44.288t-49.728 124.288l0.576 2.848q-34.848 43.424-34.848 101.728 0 12.576 1.728 24.576-18.848 32.576-21.152 68H146.272q-60 0-103.136 43.424T0 457.696q0 58.848 43.424 102.272t102.848 43.424h213.728q-12.576 34.272-12.576 73.152 0 69.728 46.56 108T512 822.816q21.728 0 39.712-10.016t31.424-28.288 23.136-36 21.152-41.152 18.848-35.424q20-31.424 57.152-73.728 1.152-1.728 8-9.728t10.848-12.288 11.712-12.288 13.728-12.864 12.864-10.272 13.44-8 12.288-2.56h164.576q30.272 0 51.712-21.44t21.44-51.712z"  horiz-adv-x="1024" />

    
    <glyph glyph-name="loading" unicode="&#58938;" d="M384 768a128 128 0 1 0 256 0 128 128 0 0 0-256 0z m271.52-112.48a128 128 0 1 0 256 0 128 128 0 0 0-256 0zM832 384a64 64 0 1 0 127.968 0.032A64 64 0 0 0 832 384z m-112.48-271.52a64 64 0 1 0 127.968 0.032 64 64 0 0 0-127.968-0.032zM448 0a64 64 0 1 0 128 0 64 64 0 1 0-128 0z m-271.52 112.48a64 64 0 1 0 128 0 64 64 0 1 0-128 0z m-32 543.04a96 96 0 1 0 192 0 96 96 0 1 0-192 0zM56 384a72 72 0 1 0 144 0 72 72 0 0 0-144 0z"  horiz-adv-x="1024" />

    
    <glyph glyph-name="spinner7" unicode="&#58939;" d="M416-32a96 96 0 1 0 192 0 96 96 0 0 0-192 0zM0 384a96 96 0 1 0 192 0 96 96 0 0 0-192 0z m832 0a96 96 0 1 0 192 0 96 96 0 0 0-192 0zM121.856 678.144a96 96 0 1 0 192 0 96 96 0 0 0-192 0z m588.288-588.288a96 96 0 1 0 192 0 96 96 0 0 0-192 0z m-588.288 0a96 96 0 1 0 192 0 96 96 0 0 0-192 0zM710.144 678.144a96 96 0 1 0 192 0 96 96 0 0 0-192 0z"  horiz-adv-x="1024" />

    
    <glyph glyph-name="minus" unicode="&#58940;" d="M967.936 464H56c-30.88 0-56-25.248-56-56.128v-47.456c0-30.88 25.12-56.416 56-56.416h911.936c30.88 0 56.064 25.536 56.064 56.416v47.456c0 30.88-25.184 56.128-56.064 56.128z"  horiz-adv-x="1024" />

    
    <glyph glyph-name="power-off" unicode="&#58942;" d="M950.848 384q0-89.152-34.848-170.272t-93.728-140-140-93.728T512-54.848t-170.272 34.848-140 93.728-93.728 140T73.152 384q0 104 46.016 196t129.44 154.272q24.576 18.272 54.56 14.272t47.712-28.576q18.272-24 14.016-54.016t-28.288-48.288q-56-42.272-86.56-103.424t-30.56-130.272q0-59.424 23.136-113.44t62.56-93.44 93.44-62.56 113.44-23.136 113.44 23.136 93.44 62.56 62.56 93.44 23.136 113.44q0 69.152-30.56 130.272t-86.56 103.424q-24 18.272-28.288 48.288t14.016 54.016q17.728 24.576 48 28.576t54.272-14.272Q858.944 672 904.96 580T950.976 384zM585.152 822.848v-365.728q0-29.728-21.728-51.424T512 383.968t-51.424 21.728-21.728 51.424V822.848q0 29.728 21.728 51.424T512 896t51.424-21.728 21.728-51.424z"  horiz-adv-x="1024" />

    
    <glyph glyph-name="mouse-pointer" unicode="&#58943;" d="M793.692788 299.946507q17.725784-17.149856 7.999001-39.419073-9.726784-22.845144-33.723785-22.845144h-218.244719l114.833645-271.966005q5.727284-14.270216 0-27.9965t-19.421572-19.9975L543.996-125.12036q-14.270216-5.727284-27.9965 0t-19.9975 19.421572l-109.138358 258.23972-178.249719-178.249718q-10.846644-10.846644-25.724784-10.846645-6.847144 0-13.726284 2.847644-22.845144 9.726784-22.845145 33.723785V859.332583q0 23.997 22.845145 33.723785 6.847144 2.847644 13.726284 2.847644 15.422072 0 25.724784-10.846644z"  horiz-adv-x="1024" />

    
    <glyph glyph-name="info" unicode="&#58944;" d="M448 592c0 26.4 21.6 48 48 48h32c26.4 0 48-21.6 48-48v-32c0-26.4-21.6-48-48-48h-32c-26.4 0-48 21.6-48 48v32zM640 128h-256v64h64v192h-64v64h192v-256h64zM512 896C229.216 896 0 666.784 0 384s229.216-512 512-512 512 229.216 512 512S794.784 896 512 896z m0-928C282.24-32 96 154.24 96 384S282.24 800 512 800s416-186.24 416-416-186.24-416-416-416z"  horiz-adv-x="1024" />

    
    <glyph glyph-name="dot-circle" unicode="&#58945;" d="M658.272 384q0-60.576-42.848-103.424T512 237.728t-103.424 42.848T365.728 384t42.848 103.424T512 530.272t103.424-42.848T658.272 384zM512 694.848q-84.576 0-156-41.728t-113.152-113.152-41.728-156 41.728-156 113.152-113.152T512 73.088t156 41.728 113.152 113.152 41.728 156-41.728 156-113.152 113.152T512 694.848zM950.848 384q0-119.424-58.848-220.288t-159.712-159.712T512-54.848t-220.288 58.848-159.712 159.712T73.152 384t58.848 220.288 159.712 159.712T512 822.848t220.288-58.848 159.712-159.712T950.848 384z"  horiz-adv-x="1024" />

    
    <glyph glyph-name="user-plus" unicode="&#58946;" d="M384 160c0 151.232 95.872 280.48 230.048 330.208C630.336 526.752 640 567.36 640 608c0 159.072 0 288-192 288S256 767.072 256 608c0-99.072 57.504-198.112 128-237.824v-52.768c-217.088-17.76-384-124.416-384-253.376h397.312a350.784 350.784 0 0 0-13.312 96zM736 448c-159.072 0-288-128.928-288-288s128.928-288 288-288 288 128.928 288 288-128.928 288-288 288z m160-320h-128v-128h-64v128h-128v64h128v128h64v-128h128v-64z"  horiz-adv-x="1024" />

    
    <glyph glyph-name="upload" unicode="&#58947;" d="M768 402.272q0 8-5.152 13.152l-201.152 201.152q-5.152 5.152-13.152 5.152t-13.152-5.152L334.816 416q-5.728-6.848-5.728-13.728 0-8 5.152-13.152t13.152-5.152h128v-201.152q0-7.424 5.44-12.864t12.864-5.44h109.728q7.424 0 12.864 5.44t5.44 12.864v201.152h128q7.424 0 12.864 5.44t5.44 12.864z m365.728-164.544q0-90.848-64.288-155.136t-155.136-64.288H292.576q-105.728 0-180.864 75.136t-75.136 180.864q0 74.272 40 137.152t107.424 94.272q-1.152 17.152-1.152 24.576 0 121.152 85.728 206.848t206.848 85.728q89.152 0 163.136-49.728t107.712-132q40.576 35.424 94.848 35.424 60.576 0 103.424-42.848t42.848-103.424q0-43.424-23.424-78.848 74.272-17.728 122.016-77.44t47.712-136.288z"  horiz-adv-x="1184" />

    
    <glyph glyph-name="hand-o-down" unicode="&#58948;" d="M877.728 347.424q0 48-18.272 104.576t-36.576 110.848-18.272 95.424v18.272H438.88v-18.272q0-20-6.848-38.56T410.88 584t-26.272-28.576-30.848-28q-5.152-4.576-8-6.848-46.272-41.152-82.848-64-12.576-8-38.848-21.728-1.728-0.576-12.864-6.016t-20.576-10.56-20.288-11.424-17.44-12.288-6.56-10.56q0-40.576 17.44-65.984t55.712-25.44q24.576 0 48.288 8.576T306.624 320t31.424 18.848 27.712 8.576v-329.152q0-28.576 22.016-50.848t51.136-22.272q29.728 0 51.424 21.728t21.728 51.424v189.152q26.272-20 58.848-20 39.424 0 68 30.272 18.272-10.272 39.424-10.272t42.016 10.016 30.016 27.136q13.728-2.272 32-2.272 48.576 0 72 27.712t23.424 77.44zM804.576 786.272q0 14.848-10.848 25.728T768 822.848t-25.728-10.848-10.848-25.728 10.848-25.728 25.728-10.848 25.728 10.848 10.848 25.728z m146.272-436.544q0-81.152-44.288-131.424t-124.288-49.728l-2.848 0.576Q736 134.304 677.696 134.304q-12.576 0-24.576 1.728-30.848-17.152-68-21.152v-96.576q0-60-43.424-103.136t-103.424-43.136q-58.848 0-102.272 43.424t-43.424 102.848v213.728q-30.848-12.576-73.152-12.576-69.152 0-107.712 46.56t-38.56 118.016q0 21.728 10.016 39.712t28.288 31.424 36 23.136 41.152 21.152 35.424 18.848q31.424 20 73.728 57.152 1.728 1.152 9.728 8t12.288 10.848 12.288 11.712 12.864 13.728 10.272 12.864 8 13.44 2.56 12.288V822.912q0 30.272 21.44 51.712t51.712 21.44h365.728q30.272 0 51.712-21.44t21.44-51.712v-164.576q0-33.728 33.728-127.424 39.424-108.576 39.424-181.152z"  horiz-adv-x="1024" />

    
    <glyph glyph-name="cog" unicode="&#58949;" d="M933.778819 285.74707c-53.726321 93.053092-21.407331 212.281366 72.157745 266.487673l-100.636855 174.298553a192.697978 192.697978 0 0 0-97.852942-26.527171c-107.548639 0-194.713915 87.741258-194.713915 195.993875h-201.241711a192.729977 192.729977 0 0 0-25.951189-98.23693C331.813631 704.709978 212.393363 673.062967 118.700291 727.013281L18.095435 552.714728a192.729977 192.729977 0 0 0 71.869754-71.485766c53.630324-92.893097 21.503328-211.929377-71.709759-266.199682l100.636855-174.298553a192.697978 192.697978 0 0 0 97.404956 26.23918c107.19665 0 194.137933-87.197275 194.681916-194.937908h201.241711a193.017968 193.017968 0 0 0 25.951189 97.212962c53.630324 92.893097 172.762601 124.604106 266.391675 71.005781l100.636855 174.298553a193.017968 193.017968 0 0 0-71.421768 71.229774zM512 176.662479A207.35352 207.35352 0 1 0 512 591.337521a207.35352 207.35352 0 0 0 0-414.675042z"  horiz-adv-x="1024" />

    
    <glyph glyph-name="plus" unicode="&#58950;" d="M967.936 464H592V839.296C592 870.176 566.976 896 536.096 896H488c-30.88 0-56-25.824-56-56.704V464H56c-30.88 0-56-24.96-56-55.872v-48.384c0-30.88 25.12-55.744 56-55.744H432v-376.64c0-30.88 25.12-55.36 56-55.36h48.096c30.88 0 55.904 24.48 55.904 55.36V304h375.936c30.88 0 56.064 24.864 56.064 55.744v48.384a56 56 0 0 1-56.064 55.872z"  horiz-adv-x="1024" />

    
    <glyph glyph-name="microphone" unicode="&#58951;" d="M841.131429 493.689144v-73.147428q0-126.264108-84.282732-219.698269t-208.274983-107.129304v-75.419286h146.262859q14.847072 0 25.726392-10.847322t10.847322-25.726393-10.847322-25.726392-25.726392-10.847322H329.131429q-14.847072 0-25.726392 10.847322t-10.847322 25.726392 10.847322 25.726393 25.726392 10.847322h146.262859v75.419286q-123.99225 13.727142-208.274983 107.129304t-84.282732 219.698269v73.147428q0 14.847072 10.847322 25.726393t25.726392 10.847322 25.726392-10.847322 10.847322-25.726393v-73.147428q0-105.721392 75.131304-180.852697t180.852697-75.131304 180.852697 75.131304 75.131304 180.852697v73.147428q0 14.847072 10.847322 25.726393t25.726392 10.847322 25.726392-10.847322 10.847322-25.726393z m-146.294856 219.410287v-292.557715q0-75.419286-53.724642-129.143928t-129.143929-53.724643-129.143929 53.724643-53.724642 129.143928V713.099431q0 75.419286 53.724642 129.143929t129.143929 53.724642 129.143929-53.724642 53.724642-129.143929z"  horiz-adv-x="1024" />

    
    <glyph glyph-name="unlocked" unicode="&#58952;" d="M768 832c105.856 0 192-86.144 192-192v-192h-128V640c0 35.296-28.704 64-64 64h-128c-35.296 0-64-28.704-64-64v-192h16c26.4 0 48-21.6 48-48v-480c0-26.4-21.6-48-48-48h-544C21.6-128 0-106.4 0-80v480c0 26.4 21.6 48 48 48H448V640c0 105.856 86.144 192 192 192h128z"  horiz-adv-x="1024" />

    
    <glyph glyph-name="hand-o-up" unicode="&#58953;" d="M804.576-18.272q0 14.848-10.848 25.728T768 18.304t-25.728-10.848-10.848-25.728 10.848-25.728 25.728-10.848 25.728 10.848 10.848 25.728z m73.152 436.544q0 108-95.424 108-14.848 0-32-2.848-9.152 17.152-30.016 27.136t-42.016 10.016-39.424-10.272q-28.576 30.272-68 30.272-14.272 0-31.712-5.728t-27.136-14.272V749.728q0 29.728-21.728 51.424t-51.424 21.728q-29.152 0-51.136-22.272t-22.016-50.848v-329.152q-11.424 0-27.712 8.576t-31.424 18.848-38.848 18.848-48.288 8.576q-38.272 0-55.712-25.44T146.272 384q0-13.728 79.424-51.424 25.152-13.728 37.152-21.152 36.576-22.848 82.848-64 46.272-40.576 60.576-57.728 32.576-39.424 32.576-80v-18.272h365.728v18.272q0 41.152 18.272 95.424t36.576 110.56 18.272 102.56z m73.12 2.88q0-76-39.424-184-33.728-93.728-33.728-127.424v-164.576q0-30.272-21.44-51.712t-51.712-21.44H438.816q-30.272 0-51.712 21.44t-21.44 51.712v164.576q0 5.728-2.56 12.288t-8 13.44-10.272 12.864-12.864 13.728-12.288 11.712-12.288 10.848-9.728 8q-42.272 37.152-73.728 57.152-12 7.424-35.424 18.848t-41.152 21.152-36 23.136-28.288 31.424-10.016 39.712q0 71.424 38.272 118.016t108 46.56q38.848 0 73.152-12.576V749.76q0 59.424 43.424 102.848t102.272 43.424q60 0 103.424-43.136t43.424-103.136v-96.576q35.424-2.272 68-21.152 12 1.728 24.576 1.728 57.728 0 101.728-34.272 79.424 0.576 125.44-48.576t46.016-129.728z"  horiz-adv-x="1024" />

    
    <glyph glyph-name="windows" unicode="&#58954;" d="M0.352 384L0 696.064l384 52.16V384zM448 757.504L959.872 832v-448H448zM960 320l-0.128-448L448-56V320zM384-47.84L0.32 4.768 0.288 320H384z"  horiz-adv-x="1024" />

    
    <glyph glyph-name="qrcode" unicode="&#58955;" d="M329.152 237.728v-73.152H256v73.152h73.152z m0 438.848v-73.152H256V676.576h73.152z m438.848 0v-73.152h-73.152V676.576H768zM182.848 92h219.424v218.848H182.848v-218.848z m0 438.272h219.424V749.696H182.848v-219.424z m438.88 0h219.424V749.696h-219.424v-219.424zM475.424 384v-365.728H109.696V384h365.728zM768 91.424v-73.152h-73.152v73.152H768z m146.272 0v-73.152h-73.152v73.152h73.152z m0 292.576v-219.424h-219.424v73.152h-73.152v-219.424h-73.152V384.032h219.424v-73.152h73.152v73.152h73.152zM475.424 822.848v-365.728H109.696V822.848h365.728z m438.848 0v-365.728H548.544V822.848h365.728z"  horiz-adv-x="1024" />

    
    <glyph glyph-name="pencil1" unicode="&#58956;" d="M864 896a160 160 0 0 0 128-256l-64-64-224 224 64 64c26.752 20.096 59.968 32 96 32zM64 160l-64-288 288 64 592 592-224 224L64 160z m651.584 372.416l-448-448-55.168 55.168 448 448 55.168-55.168z"  horiz-adv-x="1024" />

    
    <glyph glyph-name="reset" unicode="&#58957;" d="M1023.99968 512.00012H639.9998l143.519955 143.519955C710.975778 728.032052 614.559808 768.00004 511.99984 768.00004S312.991902 728.064052 240.479925 655.520075C167.967948 582.976098 127.99996 486.560128 127.99996 384.00016s39.935988-199.007938 112.479965-271.519915C313.023902 39.968268 409.439872 0.00028 511.99984 0.00028s199.007938 39.935988 271.519915 112.479965c6.047998 6.047998 11.871996 12.287996 17.471995 18.655994l96.31997-84.287974A510.71984 510.71984 0 0 0 511.99984-127.99968C229.215928-127.99968 0 101.216248 0 384.00016S229.215928 896 511.99984 896c141.375956 0 269.375916-57.311982 362.015887-149.983953L1023.99968 896v-383.99988z"  horiz-adv-x="1024" />

    
    <glyph glyph-name="external-link" unicode="&#58958;" d="M804.576 365.728v-182.848q0-68-48.288-116.288T640 18.304H164.576q-68 0-116.288 48.288T0 182.88V658.304q0 68 48.288 116.288t116.288 48.288h402.272q8 0 13.152-5.152t5.152-13.152V768q0-8-5.152-13.152t-13.152-5.152H164.576q-37.728 0-64.576-26.848t-26.848-64.576v-475.424q0-37.728 26.848-64.576t64.576-26.848H640q37.728 0 64.576 26.848t26.848 64.576v182.848q0 8 5.152 13.152t13.152 5.152h36.576q8 0 13.152-5.152t5.152-13.152zM1024 859.424v-292.576q0-14.848-10.848-25.728t-25.728-10.848-25.728 10.848L861.12 641.696 488.544 269.12q-5.728-5.728-13.152-5.728t-13.152 5.728l-65.152 65.152q-5.728 5.728-5.728 13.152t5.728 13.152L769.664 733.152l-100.576 100.576q-10.848 10.848-10.848 25.728t10.848 25.728 25.728 10.848h292.576q14.848 0 25.728-10.848t10.848-25.728z"  horiz-adv-x="1024" />

    
    <glyph glyph-name="shrink" unicode="&#58959;" d="M576 448h416l-160 160 192 192-96 96-192-192-160 160zM576 320v-416l160 160 192-192 96 96-192 192 160 160zM448 320H32l160-160-192-192 96-96 192 192 160-160zM448 448V864L288 704 96 896 0 800l192-192-160-160z"  horiz-adv-x="1024" />

    
    <glyph glyph-name="send-o" unicode="&#58960;" d="M1008.0656 889.728q18.848-13.728 15.424-36.576l-146.272-877.728q-2.848-16.576-18.272-25.728-8-4.576-17.728-4.576-6.272 0-13.728 2.848l-301.152 122.848-170.272-186.848q-10.272-12-26.848-12-8 0-13.152 2.272-10.848 4-17.152 13.44t-6.272 20.864v258.272L22.9136 277.088q-21.152 8-22.848 31.424-1.728 22.272 18.272 33.728L969.1856 890.816q20 12 38.848-1.152z m-195.424-856.576l126.272 756L119.4896 316.576l192-78.272L804.6416 603.456l-273.152-455.424z"  horiz-adv-x="1024" />

    
    <glyph glyph-name="circle-up" unicode="&#58961;" d="M738.848 245.152l58.272 58.272q10.848 10.848 10.848 25.728t-10.848 25.728l-259.424 259.424q-10.848 10.848-25.728 10.848t-25.728-10.848L226.816 354.88q-10.848-10.848-10.848-25.728t10.848-25.728l58.272-58.272q10.848-10.848 25.728-10.848t25.728 10.848l175.424 175.424 175.424-175.424q10.848-10.848 25.728-10.848t25.728 10.848zM950.848 384q0-119.424-58.848-220.288t-159.712-159.712T512-54.848t-220.288 58.848-159.712 159.712T73.152 384t58.848 220.288 159.712 159.712T512 822.848t220.288-58.848 159.712-159.712T950.848 384z"  horiz-adv-x="1024" />

    
    <glyph glyph-name="switch" unicode="&#58962;" d="M640 749.408V613.44a320 320 0 0 0 98.272-67.168C798.72 485.824 832 405.472 832 320s-33.28-165.824-93.728-226.272C677.824 33.28 597.472 0 512 0s-165.824 33.28-226.272 93.728C225.28 154.176 192 234.528 192 320s33.28 165.824 93.728 226.272A319.424 319.424 0 0 0 384 613.44V749.408C198.944 694.336 64 522.944 64 320c0-247.424 200.576-448 448-448s448 200.576 448 448c0 202.944-134.944 374.336-320 429.408zM448 896h128v-512h-128z"  horiz-adv-x="1024" />

    
    <glyph glyph-name="microphone-slash" unicode="&#58963;" d="M264.599194 355.954629l-57.722589-57.722588q-23.99775 58.842484-23.99775 122.260538v73.145142q0 14.846608 10.846983 25.725589t25.725588 10.846983 25.725589-10.846983 10.846983-25.725589v-73.145142q0-30.269162 8.575196-64.569947z m636.516326 343.967753l-206.252663-206.252664v-73.145142q0-75.41693-53.722964-129.139893T512 237.661719q-31.421054 0-62.266163 10.846983l-54.842858-54.842858q55.418804-29.149267 117.141018-29.149267 105.718089 0 180.847046 75.128956t75.128956 180.847046v73.145142q0 14.846608 10.846983 25.725589t25.725589 10.846983 25.725588-10.846983 10.846983-25.725589v-73.145142q0-126.260163-84.280099-219.691404t-208.268475-107.125957v-75.41693h146.258289q14.846608 0 25.725588-10.846983t10.846983-25.725588-10.846983-25.725588-25.725588-10.846983H329.16914q-14.846608 0-25.725588 10.846983t-10.846983 25.725588 10.846983 25.725588 25.725588 10.846983h146.258289v75.41693q-71.417305 7.423304-134.259414 46.267662l-145.138393-145.138393q-5.727463-5.727463-13.150767-5.727463t-13.150767 5.727463l-46.843608 46.843608q-5.727463 5.727463-5.727463 13.150768t5.727463 13.150767L827.970378 773.035528q5.727463 5.727463 13.150767 5.727463t13.150767-5.727463l46.843608-46.843608q5.727463-5.727463 5.727463-13.150768t-5.727463-13.150767z m-217.131643 75.41693L329.16914 420.524576V713.073149q0 75.41693 53.722964 129.139894t129.139893 53.722963q58.266538 0 105.430116-33.724838t66.553761-86.839859z"  horiz-adv-x="1024" />

    
    <glyph glyph-name="italic" unicode="&#58964;" d="M896 832v-64h-128L448 0h128v-64H128v64h128L576 768h-128V832z"  horiz-adv-x="1024" />

    
    <glyph glyph-name="instagram1" unicode="&#58965;" d="M658.272 384q0 60.576-42.848 103.424T512 530.272t-103.424-42.848T365.728 384t42.848-103.424T512 237.728t103.424 42.848T658.272 384z m78.88 0q0-93.728-65.728-159.424T512 158.848t-159.424 65.728T286.848 384t65.728 159.424T512 609.152t159.424-65.728T737.152 384z m61.696 234.272q0-21.728-15.424-37.152t-37.152-15.424-37.152 15.424-15.424 37.152 15.424 37.152 37.152 15.424 37.152-15.424 15.424-37.152zM512 744l-43.712 0.288q-39.712 0.288-60.288 0t-55.136-1.728-58.848-5.728-40.864-10.56q-28.576-11.424-50.272-33.152T169.728 642.848q-6.272-16.576-10.56-40.864t-5.728-58.848-1.728-55.136 0-60.288T152 384t-0.288-43.712 0-60.288 1.728-55.136 5.728-58.848 10.56-40.864q11.424-28.576 33.152-50.272t50.272-33.152q16.576-6.272 40.864-10.56t58.848-5.728 55.136-1.728 60.288 0T512 24t43.712-0.288 60.288 0 55.136 1.728 58.848 5.728 40.864 10.56q28.576 11.424 50.272 33.152t33.152 50.272q6.272 16.576 10.56 40.864t5.728 58.848 1.728 55.136 0 60.288T872 384t0.288 43.712 0 60.288-1.728 55.136-5.728 58.848-10.56 40.864q-11.424 28.576-33.152 50.272t-50.272 33.152q-16.576 6.272-40.864 10.56t-58.848 5.728-55.136 1.728-60.288 0T512 744zM950.848 384q0-130.848-2.848-181.152-5.728-118.848-70.848-184t-184-70.848q-50.272-2.848-181.152-2.848t-181.152 2.848q-118.848 5.728-184 70.848t-70.848 184Q73.152 253.12 73.152 384t2.848 181.152q5.728 118.848 70.848 184t184 70.848Q381.12 822.848 512 822.848t181.152-2.848q118.848-5.728 184-70.848t70.848-184q2.848-50.272 2.848-181.152z"  horiz-adv-x="1024" />

    
    <glyph glyph-name="shrink2" unicode="&#58966;" d="M448 320v-416l-160 160-192-192-96 96 192 192-160 160zM1024 800l-192-192 160-160H576V864l160-160 192 192z"  horiz-adv-x="1024" />

    
    <glyph glyph-name="previous2" unicode="&#58967;" d="M256 0V768h128v-352L704 736v-704L384 352v-352z"  horiz-adv-x="1024" />

    
    <glyph glyph-name="users" unicode="&#58968;" d="M768 125.376v52.768c70.496 39.712 128 138.784 128 237.824 0 159.072 0 288-192 288s-192-128.928-192-288c0-99.072 57.504-198.112 128-237.824v-52.768C422.912 107.616 256 0.96 256-128h896c0 128.96-166.912 235.648-384 253.376zM327.2 100.672c55.296 36.16 124.064 63.648 199.776 80.416a362.56 362.56 0 0 0-40.48 59.008c-30.4 55.232-46.496 116.064-46.496 175.904 0 86.048 0 167.296 30.592 233.76 29.696 64.512 83.136 104.48 159.232 119.488C612.896 845.728 567.872 896 448 896 256 896 256 767.072 256 608c0-99.072 57.504-198.112 128-237.824v-52.768c-217.088-17.76-384-124.416-384-253.376h279.008c14.528 12.896 30.592 25.184 48.192 36.672z"  horiz-adv-x="1152" />

    
    <glyph glyph-name="pencil-square-o" unicode="&#58969;" d="M507.424 219.424l66.272 66.272-86.848 86.848-66.272-66.272v-32h54.848v-54.848h32z m251.424 411.424q-9.152 9.152-18.848-0.576l-200-200q-9.728-9.728-0.576-18.848t18.848 0.576l200 200q9.728 9.728 0.576 18.848z m45.728-339.424v-108.576q0-68-48.288-116.288T640 18.272H164.576q-68 0-116.288 48.288T0 182.848V658.272q0 68 48.288 116.288t116.288 48.288H640q36 0 66.848-14.272 8.576-4 10.272-13.152 1.728-9.728-5.152-16.576l-28-28q-8-8-18.272-4.576-13.152 3.424-25.728 3.424H164.544q-37.728 0-64.576-26.848t-26.848-64.576v-475.424q0-37.728 26.848-64.576t64.576-26.848h475.424q37.728 0 64.576 26.848t26.848 64.576v72q0 7.424 5.152 12.576L773.12 304q8.576 8.576 20 4t11.424-16.576zM749.728 713.152l164.576-164.576-384-384h-164.576v164.576z m253.696-75.424l-52.576-52.576-164.576 164.576 52.576 52.576q16 16 38.848 16t38.848-16l86.848-86.848q16-16 16-38.848t-16-38.848z"  horiz-adv-x="1024" />

    
    <glyph glyph-name="sign-out" unicode="&#58970;" d="M402.272 73.152q0-2.272 0.576-11.424t0.288-15.136-1.728-13.44-5.728-11.136-11.712-3.712H201.12q-68 0-116.288 48.288t-48.288 116.288V585.152q0 68 48.288 116.288t116.288 48.288h182.848q7.424 0 12.864-5.44t5.44-12.864q0-2.272 0.576-11.424t0.288-15.136-1.728-13.44-5.728-11.136-11.712-3.712H201.12q-37.728 0-64.576-26.848t-26.848-64.576v-402.272q0-37.728 26.848-64.576t64.576-26.848h178.272l6.56-0.576 6.56-1.728 4.576-3.136 4-5.152 1.152-7.712zM932.576 384q0-14.848-10.848-25.728l-310.848-310.848q-10.848-10.848-25.728-10.848t-25.728 10.848-10.848 25.728v164.576h-256q-14.848 0-25.728 10.848T256 274.304v219.424q0 14.848 10.848 25.728t25.728 10.848h256V694.88q0 14.848 10.848 25.728t25.728 10.848 25.728-10.848l310.848-310.848q10.848-10.848 10.848-25.728z"  horiz-adv-x="1024" />

    
    <glyph glyph-name="palette" unicode="&#58971;" d="M877.16064 742.912A508.864 508.864 0 0 1 521.48064 895.904C383.75264 898.368 253.60864 847.232 155.20864 751.808 56.90464 656.48 1.80064 528.224 0.07264 390.624a513.088 513.088 0 0 1 59.488-246.464 168.928 168.928 0 0 1 122.592-88.096 168.832 168.832 0 0 1 144.544 44.288c50.304 47.488 116.096 73.632 185.28 73.632s135.008-26.144 185.28-73.632c9.824-9.28 20.576-17.28 32.096-23.904l3.296-124.416a81.792 81.792 0 0 1 82.208-80.064 82.656 82.656 0 0 1 82.208 80.48l2.624 124.352a168.64 168.64 0 0 1 64.864 67.552 512.96 512.96 0 0 1 59.424 239.616c0 135.104-52.16 262.592-146.88 358.912z m-153.12-316.352v-146.56l3.328-125.952A328.608 328.608 0 0 1 512.04064 233.984c-84.576 0-164.992-31.968-226.464-89.984a109.44 109.44 0 0 0-93.632-28.704 109.248 109.248 0 0 0-79.36 57.024 452.832 452.832 0 0 0-52.512 217.536c1.536 121.504 50.176 234.752 136.928 318.88 86.848 84.224 201.664 129.408 323.424 127.168a449.312 449.312 0 0 0 313.984-135.072A458.592 458.592 0 0 0 883.24064 642.08a299.744 299.744 0 0 1-202.592-23.264l-24.16-12.064 67.584-180.192z m120-146.24l-6.912-326.56a22.368 22.368 0 0 0-22.24-21.76 22.08 22.08 0 0 0-22.208 21.632l-8.64 326.752v1.6h60v-1.696z m0 61.664H784.04064v60h60v-60z m9.216 120h-78.432l-42.688 113.792c52.704 19.2 111.072 19.2 163.776 0l-42.688-113.792z m58.336-289.472a112.32 112.32 0 0 0-10.176-15.84l2.592 122.72v147.2l37.312 99.456a453.12 453.12 0 0 0 22.688-142.016c0-73.696-18.144-146.848-52.448-211.488zM512.04064 776c-49.632 0-90.016-40.384-90.016-90.016S462.40864 595.968 512.04064 595.968s90.016 40.384 90.016 90.016S561.67264 776 512.04064 776z m0-120c-16.544 0-30.016 13.472-30.016 30.016s13.472 30.016 30.016 30.016c16.544 0 30.016-13.472 30.016-30.016S528.58464 656 512.04064 656zM278.05664 665.984c-49.632 0-90.016-40.384-90.016-90.016s40.384-90.016 90.016-90.016 90.016 40.384 90.016 90.016-40.384 90.016-90.016 90.016z m0-120c-16.544 0-30.016 13.472-30.016 30.016s13.472 30.016 30.016 30.016 30.016-13.472 30.016-30.016-13.472-30.016-30.016-30.016zM214.05664 425.984c-49.632 0-90.016-40.384-90.016-90.016s40.384-90.016 90.016-90.016 90.016 40.384 90.016 90.016-40.384 90.016-90.016 90.016z m0-120c-16.544 0-30.016 13.472-30.016 30.016s13.472 30.016 30.016 30.016 30.016-13.472 30.016-30.016-13.472-30.016-30.016-30.016z"  horiz-adv-x="1024" />

    
    <glyph glyph-name="hand-o-right" unicode="&#58972;" d="M146.272 128q0 14.848-10.848 25.728t-25.728 10.848-25.728-10.848-10.848-25.728 10.848-25.728 25.728-10.848 25.728 10.848 10.848 25.728z m804.576 329.152q0 29.152-22.272 51.136t-50.848 22.016H548.576q0 11.424 8.576 27.712T576 589.44t18.848 38.848 8.576 48.288q0 38.272-25.44 55.712t-66.016 17.44q-13.728 0-51.424-79.424-13.728-25.152-21.152-37.152-22.848-36.576-64-82.848-40.576-46.272-57.728-60.576-39.424-32.576-80-32.576h-18.272v-365.728h18.272q41.152 0 95.424-18.272t110.56-36.576 102.56-18.272q108 0 108 95.424 0 14.848-2.848 32 17.152 9.152 27.136 30.016t10.016 42.016-10.272 39.424q30.272 28.576 30.272 68 0 14.272-5.728 31.712t-14.272 27.136h189.152q29.728 0 51.424 21.728t21.728 51.424zM1024 457.728q0-60-43.136-103.424t-103.136-43.424h-96.576q-2.272-35.424-21.152-68 1.728-12 1.728-24.576 0-57.728-34.272-101.728 0.576-79.424-48.576-125.44t-129.728-46.016q-76 0-184 39.424-93.728 33.728-127.424 33.728H73.152q-30.272 0-51.712 21.44T0 91.424V457.152q0 30.272 21.44 51.712t51.712 21.44h164.576q5.728 0 12.288 2.56t13.44 8 12.864 10.272 13.728 12.864 11.712 12.288 10.848 12.288 8 9.728q37.152 42.272 57.152 73.728 7.424 12 18.848 35.424t21.152 41.152 23.136 36 31.424 28.288 39.712 10.016q71.424 0 117.984-38.272t46.56-108q0-38.848-12.576-73.152h213.728q59.424 0 102.848-43.424T1024 457.792z"  horiz-adv-x="1024" />

    
    <glyph glyph-name="radio-unchecked" unicode="&#58973;" d="M512 896C229.216 896 0 666.784 0 384s229.216-512 512-512 512 229.216 512 512S794.784 896 512 896z m0-896C299.936 0 128 171.936 128 384S299.936 768 512 768s384-171.936 384-384-171.936-384-384-384z"  horiz-adv-x="1024" />

    
    <glyph glyph-name="video-camera1" unicode="&#58974;" d="M1024 694.848v-621.728c0-14.848-9.152-28-22.272-33.728a42.112 42.112 0 0 0-14.272-2.848c-9.728 0-18.848 3.424-25.728 10.848l-230.272 230.272v-94.848a164.64 164.64 0 0 0-164.576-164.576H164.608a164.64 164.64 0 0 0-164.576 164.576V585.088a164.64 164.64 0 0 0 164.576 164.576h402.272a164.64 164.64 0 0 0 164.576-164.576v-94.272l230.272 229.728c6.848 7.424 16 10.848 25.728 10.848 4.576 0 9.728-1.152 14.272-2.848 13.152-5.728 22.272-18.848 22.272-33.728z"  horiz-adv-x="1024" />

    
    <glyph glyph-name="eye" unicode="&#58976;" d="M512 704C288.672 704 95.104 573.952 0 384c95.104-189.952 288.672-320 512-320s416.864 130.048 512 320c-95.104 189.952-288.672 320-512 320z m252.448-169.696A486.784 486.784 0 0 0 913.888 384a487.136 487.136 0 0 0-149.44-150.304C688.864 185.472 601.568 160 512 160s-176.864 25.472-252.448 73.696A486.784 486.784 0 0 0 110.112 384a487.136 487.136 0 0 0 161.312 157.6 256 256 0 1 1 481.152 0c3.968-2.368 7.936-4.8 11.872-7.296zM512 480a96 96 0 1 0-192 0 96 96 0 0 0 192 0z"  horiz-adv-x="1024" />

    
    <glyph glyph-name="eraser1" unicode="&#58977;" d="M598.272 81.984L238.432 441.888 652.96 856.352c19.392 19.584 51.552 18.912 71.744-1.312l286.848-286.656c20.128-20.224 20.768-52.352 1.28-71.744L598.304 81.984zM539.904 15.968c-95.296-95.36-327.328-18.08-427.776 82.4-100.352 100.416-31.328 185.952 64.032 281.312l363.776-363.712z"  horiz-adv-x="1027" />

    
    <glyph glyph-name="underline" unicode="&#58978;" d="M704 832h128v-416c0-159.072-143.264-288-320-288S192 256.928 192 416V832h128v-416c0-40.16 18.24-78.688 51.36-108.512C408.256 274.272 458.208 256 512 256s103.744 18.304 140.64 51.488C685.76 337.28 704 375.84 704 416V832zM192 64h640v-128H192z"  horiz-adv-x="1024" />

    
    <glyph glyph-name="redo" unicode="&#58889;" d="M392.906846-87.72700999999995h193.665702a45.603239 45.603239 0 0 1 0 91.206478H392.906846c-145.693464 0-263.551186 118.449971-263.551186 263.551186s118.449971 263.551186 263.551186 263.551185h528.286871a45.603239 45.603239 0 0 1 0 91.206478H392.906846c-195.442452-0.59225-354.757663-159.315211-354.757664-355.349913 0-195.442452 159.315211-354.165414 354.757664-354.165414zM940.145712 523.474841a45.484789 45.484789 0 0 1 26.058994 82.91498L586.572548 871.125506a46.077039 46.077039 0 0 1-63.370734-11.252747c-14.213997-20.728745-9.475998-49.156738 11.252747-63.370735l379.632157-264.735685c8.291498-5.922499 17.175246-8.291498 26.058994-8.291498zM560.513555 258.14690599999994c8.883748 0 17.767496 2.368999 26.058993 8.291498l379.632158 264.735685a45.484789 45.484789 0 0 1-52.117988 74.623482L534.454561 341.06188499999996a45.484789 45.484789 0 0 1 26.058994-82.914979z"  horiz-adv-x="1024" />

    
    <glyph glyph-name="tools" unicode="&#58890;" d="M236.724706-26.80470600000001c-34.334118 0-69.270588 10.842353-100.592941 33.129412C55.416471 61.741175999999996-16.263529 199.67999999999995 23.491765 419.538824 55.416471 593.016471 187.934118 733.3647060000001 369.242353 785.167059c186.729412 53.609412 380.687059 0.602353 507.181176-137.336471l-38.550588-34.93647c-112.64 123.482353-286.72 171.068235-454.174117 122.88-162.635294-46.381176-281.298824-171.068235-309.007059-325.270589-35.538824-195.764706 26.503529-316.837647 90.955294-361.411764 42.767059-29.515294 92.16-31.322353 135.529412-4.818824 199.378824 121.072941 310.211765 85.534118 424.05647 30.117647l-22.287059-46.381176c-85.534118 41.562353-182.512941 88.545882-374.663529-27.708236-29.515294-18.672941-60.235294-27.105882-91.557647-27.105882zM875.821176-15.962353000000007l-17.468235-6.023529 0.602353 55.41647c67.463529 23.491765 130.108235 160.828235 110.230588 303.585883l51.2 7.228235c22.287059-157.816471-45.176471-325.872941-144.564706-360.207059zM743.303529 522.541176c-12.649412-46.983529-4.818824-96.978824 21.082353-137.938823 9.637647-16.263529 14.456471-40.96 6.625883-73.487059l-68.065883-251.783529c-13.251765-49.392941 16.865882-99.990588 66.861177-112.037647 49.392941-12.047059 101.195294 17.468235 114.447059 66.861176l68.065882 252.385882c9.637647 31.924706 26.503529 51.2 43.971765 61.44 42.767059 22.889412 74.691765 63.247059 87.943529 110.230589 18.672941 68.668235-6.625882 140.348235-62.042353 181.910588a16.865882 16.865882 0 0 1-16.865882 2.409412c-5.421176-1.807059-10.24-6.625882-11.444706-12.047059l-30.72-112.64a44.574118 44.574118 0 0 0-53.609412-31.924706 41.803294 41.803294 0 0 0-30.72 51.2l30.72 112.64c1.807059 6.023529 0 12.047059-4.21647 16.865882a18.672941 18.672941 0 0 1-16.26353 6.02353c-69.270588-10.842353-126.494118-60.235294-145.167059-128.90353l-0.602353-1.204706z m34.936471-9.637647l1.204706 4.216471c12.649412 42.164706 44.574118 75.294118 84.931765 91.557647l2.409411 0.602353-22.287058-83.124706c-11.444706-42.164706 14.456471-85.534118 56.621176-95.774118l3.614118-0.602352c40.96-7.830588 82.522353 16.865882 93.364706 57.825882l22.889411 84.329412 1.807059-1.807059c27.708235-33.129412 38.550588-78.908235 26.50353-122.88-10.24-37.948235-36.141176-69.872941-70.475295-88.545883-25.298824-14.456471-48.188235-40.96-60.837647-83.124705l-68.668235-252.988236c-7.830588-30.117647-40.357647-48.790588-71.077647-40.96a54.934588 54.934588 0 0 0-40.357647 68.065883l68.065882 252.385882c10.24 42.767059 3.614118 77.101176-10.842353 101.195294-19.877647 31.322353-26.503529 69.270588-18.070588 105.411765l1.204706 4.21647zM792.696471-62.34352899999999c-7.830588 0-16.263529 1.204706-24.094118 3.011764a98.304 98.304 0 0 0-71.68 120.470589l68.065882 251.783529c6.625882 27.105882 4.216471 51.2-6.023529 68.668235-27.105882 42.164706-34.936471 94.569412-21.684706 143.36l0.602353 1.204706a183.115294 183.115294 0 0 0 150.588235 133.12c8.432941 1.204706 16.263529-1.807059 22.287059-7.830588 5.421176-6.023529 7.830588-14.456471 5.421177-22.889412l-30.72-112.64c-2.409412-9.035294-1.204706-18.672941 3.614117-27.105882 4.216471-8.432941 12.649412-14.456471 21.684706-16.865883 19.877647-4.818824 40.96 7.228235 45.778824 26.50353l30.72 112.64c2.409412 7.830588 7.830588 13.854118 15.661176 16.865882 7.830588 2.409412 16.263529 1.204706 22.889412-3.614117 58.428235-43.369412 83.124706-117.458824 64.451765-188.536471-13.251765-48.188235-46.381176-90.352941-90.955295-114.447059-12.649412-7.228235-30.72-23.491765-40.357647-57.223529l-68.065882-252.385883c-12.649412-44.574118-53.609412-74.089412-98.183529-74.089411z m99.388235 708.367058h-1.807059c-67.463529-10.24-122.277647-59.030588-139.745882-124.084705l-0.602353-1.204706c-12.047059-45.176471-4.818824-93.364706 20.48-133.12 8.432941-14.456471 16.865882-39.755294 7.830588-78.305883l-68.065882-252.385882c-6.023529-21.684706-3.011765-44.574118 9.035294-64.451765s30.72-34.334118 53.007059-39.755294c46.381176-11.444706 93.967059 16.263529 106.61647 62.042353l68.065883 252.385882c11.444706 38.550588 31.924706 56.621176 46.983529 65.054118a176.489412 176.489412 0 0 1 84.931765 106.616471c18.070588 65.656471-5.421176 134.324706-59.632942 175.284706-3.011765 2.409412-7.228235 3.011765-10.842352 1.807058s-6.625882-4.216471-7.228236-7.830588l-30.72-112.64c-7.228235-25.901176-35.538824-42.164706-61.44-36.141176-12.649412 3.011765-23.491765 11.444706-30.117647 22.889411s-8.432941 24.094118-4.818823 36.74353l30.72 112.64c1.204706 3.614118 0 7.830588-2.409412 10.842353a21.022118 21.022118 0 0 1-10.24 3.614117z m-99.990588-672.225882c-4.818824 0-10.24 0.602353-15.058824 1.807059-16.263529 4.216471-30.117647 14.456471-39.152941 28.912941-8.432941 14.456471-10.842353 30.72-6.625882 46.983529l68.065882 252.385883c11.444706 46.983529 0.602353 78.305882-10.24 96.37647-20.48 32.527059-27.708235 72.282353-18.672941 110.230589l2.409412 9.035294c13.251765 43.369412 46.381176 78.908235 88.545882 95.774117l13.854118 5.421177-25.901177-95.171765a71.077647 71.077647 0 0 1 51.802353-87.943529l3.614118-0.602353c37.345882-7.228235 75.896471 16.263529 85.534117 53.007059l25.901177 95.774117 9.637647-11.444706c29.515294-35.538824 40.357647-83.727059 28.310588-128.903529a149.985882 149.985882 0 0 0-73.487059-92.16c-18.672941-10.842353-43.971765-33.129412-57.825882-78.908235l-68.065882-252.988236c-6.625882-28.310588-33.731765-47.585882-62.644706-47.585882z m-7.830589 537.901177l-1.204705-4.818824c-7.830588-33.731765-1.807059-70.475294 17.468235-99.990588 12.649412-20.48 24.094118-54.814118 12.047059-106.616471l-68.065883-252.385882c-3.614118-12.649412-1.807059-25.298824 4.818824-36.74353s17.468235-19.877647 30.72-22.889411c27.105882-6.625882 56.018824 10.24 63.247059 36.743529l68.668235 252.988235c15.058824 49.995294 42.767059 74.691765 63.849412 86.738824 33.129412 18.070588 57.825882 48.790588 67.463529 84.329412 10.24 37.948235 3.011765 77.703529-19.275294 109.025882l-19.275294-71.68c-12.047059-43.971765-56.018824-71.077647-101.195294-62.644706l-3.614118 0.602353c-22.287059 5.421176-40.96 19.275294-53.007059 39.152941-11.444706 19.877647-14.456471 42.767059-9.035294 64.451765l19.275294 69.872941c-33.731765-16.263529-60.235294-46.983529-71.077647-82.522353l-1.807059-3.614117zM777.637647 47.28470600000003c-11.444706-6.625882-15.058824-21.684706-8.432941-33.129412 6.625882-11.444706 21.684706-15.058824 33.129412-8.432941 11.444706 6.625882 15.058824 21.684706 8.432941 33.129412s-21.684706 15.058824-33.129412 8.432941z m6.023529-10.842353c3.614118 2.409412 8.432941 2.409412 12.047059 0 3.614118-1.807059 6.023529-6.023529 6.02353-10.24s-2.409412-8.432941-6.02353-10.24c-5.421176-3.614118-12.649412-1.204706-16.263529 4.216471-3.011765 6.023529-1.204706 13.251765 4.21647 16.263529zM249.976471 194.258824c-55.416471 0-100.592941 45.176471-100.592942 100.592941s45.176471 100.592941 100.592942 100.592941 100.592941-45.176471 100.592941-100.592941-45.176471-100.592941-100.592941-100.592941z m0 162.635294c-34.334118 0-62.042353-27.708235-62.042353-62.042353S215.642353 233.41176499999995 249.976471 233.41176499999995s62.042353 27.708235 62.042353 62.042353-28.310588 61.44-62.042353 61.44zM331.294118 437.007059c-52.404706 0-95.171765 42.767059-95.171765 95.171765s42.164706 95.171765 95.171765 95.171764 95.171765-42.767059 95.171764-95.171764-42.767059-95.171765-95.171764-95.171765z m0 151.190588a56.560941 56.560941 0 1 1 0-113.242353c31.322353 0 56.621176 25.298824 56.621176 56.621177a57.344 57.344 0 0 1-56.621176 56.621176zM586.089412 540.009412a80.715294 80.715294 0 1 0 80.715294 80.715294c-0.602353-44.574118-36.141176-80.715294-80.715294-80.715294z m0 122.277647c-22.889412 0-41.562353-18.672941-41.562353-41.562353s18.672941-41.562353 41.562353-41.562353 41.562353 18.672941 41.562353 41.562353c0 22.889412-18.672941 41.562353-41.562353 41.562353z"  horiz-adv-x="1108" />

    
    <glyph glyph-name="hollow" unicode="&#58891;" d="M278.016 156.15999999999997H81.92V651.7760000000001h495.104v-121.344h-49.664v71.68H131.584v-396.288h146.432zM623.616-36.351999999999975L348.16 239.10400000000004l274.944 275.456 275.456-275.456-274.944-275.456z m-204.8 275.456l204.8-204.8 204.8 204.8-204.8 204.8-204.8-204.8zM856.576 365.05600000000004l-29.184 40.448a179.9168 179.9168 0 0 1 40.96 250.368 179.456 179.456 0 0 1-241.664 47.104l-16.384-12.288-7.68-5.632-29.184 39.936 7.168 5.12c7.168 5.632 17.408 12.8 19.456 14.336 102.4 65.024 238.08 38.912 308.736-59.904 35.84-49.664 50.176-110.592 39.936-171.008s-42.496-112.64-92.16-148.48z"  horiz-adv-x="1024" />

    
    <glyph glyph-name="solid" unicode="&#58892;" d="M387.584 154.62400000000002H84.992V689.664h535.04v-123.392l-320.512-320zM654.336-48.12800000000004L353.28 252.928l301.056 301.056 301.056-301.056-301.056-301.056zM653.312 722.944v-122.88l1.024 1.024 204.8-204.8a241.2544 241.2544 0 0 1 84.48 183.296c0 133.632-108.544 242.176-242.176 242.176-79.872 0-150.528-38.912-194.56-98.816h146.432z"  horiz-adv-x="1024" />

    
    <glyph glyph-name="images" unicode="&#58893;" d="M728.32 64.63999999999999h262.4s-43.52 200.32-128 199.04c-80-1.28-128-176-134.4-199.04zM464 460.16c-151.04 0-239.36-395.52-239.36-395.52h501.76c-63.36 94.72-163.84 395.52-262.4 395.52zM941.44 482.56c0-44.8-36.48-81.92-81.92-81.92-44.8 0-81.92 36.48-81.92 81.92 0 44.8 36.48 81.92 81.92 81.92 45.44 0 81.92-36.48 81.92-81.92zM1002.88-69.12H222.08c-46.72 0-85.12 38.4-85.12 85.12V645.76c0 46.72 38.4 85.12 85.12 85.12h780.8c46.72 0 85.12-38.4 85.12-85.12v-629.76c0-47.36-38.4-85.12-85.12-85.12zM222.08 676.48c-16.64 0-30.72-14.08-30.72-30.72v-629.76c0-16.64 14.08-30.72 30.72-30.72h780.8c16.64 0 30.72 14.08 30.72 30.72V645.76c0 16.64-14.08 30.72-30.72 30.72H222.08zM164.48 37.120000000000005H85.12c-46.72 0-85.12 38.4-85.12 85.12V752C0 798.72 38.4 837.12 85.12 837.12h780.8c46.72 0 85.12-38.4 85.12-85.12v-48.64h-54.4v48.64c0 16.64-14.08 30.72-30.72 30.72H85.12c-16.64 0-30.72-14.08-30.72-30.72v-629.76c0-16.64 14.08-30.72 30.72-30.72h79.36v-54.4z"  horiz-adv-x="1088" />

    
    <glyph glyph-name="undo" unicode="&#58894;" d="M630.746096-87.72700999999995H437.080393a45.603239 45.603239 0 0 0 0 91.206478h193.665703c145.693464 0 263.551186 118.449971 263.551186 263.551186s-118.449971 263.551186-263.551186 263.551185H103.051475a45.603239 45.603239 0 0 0 0 91.206478h528.286871c195.442452 0 354.757663-159.315211 354.757663-354.757663s-159.907461-354.757663-355.349913-354.757664zM83.50723 523.474841c-14.213997 0-28.427993 6.514748-37.311741 19.544245A44.892539 44.892539 0 0 0 57.448236 605.7975710000001L437.080393 870.533256a45.484789 45.484789 0 0 0 52.117988-74.623482L109.566223 531.174089c-8.291498-5.330249-17.175246-7.699248-26.058993-7.699248zM463.139387 258.14690599999994a43.826489 43.826489 0 0 0-26.058994 8.291498L57.448236 531.174089a45.484789 45.484789 0 0 0 52.117987 74.623482l379.632158-264.735686a45.484789 45.484789 0 0 0-26.058994-82.914979z"  horiz-adv-x="1024" />

    
    <glyph glyph-name="brush" unicode="&#58895;" d="M681.472 424.96H357.376V656.896a162.3552 162.3552 0 0 0 324.608 0V424.96zM410.624 478.208h217.6V656.896c0 59.904-48.64 109.056-109.056 109.056-59.904 0-109.056-48.64-109.056-109.056v-178.688z m0 0M861.184 221.18399999999997H153.088v117.248c0 77.312 62.976 139.776 139.776 139.776h454.656c77.312 0 139.776-62.976 139.776-139.776v-90.624h-26.624v-26.624zM206.336 274.432H834.56v64c0 47.616-38.912 86.528-86.528 86.528H292.864c-47.616 0-86.528-38.912-86.528-86.528v-64z m0 0M828.416-51.200000000000045H212.48c-32.768 0-59.392 26.624-59.392 59.392v266.24h734.72v-266.24c0-32.768-26.624-59.392-59.392-59.392zM242.176 2.048000000000002h556.032c19.968 0 36.352 16.384 36.352 36.352v182.784H206.336v-182.784c0-20.48 15.872-36.352 35.84-36.352zM330.752 111.61599999999999H384v-136.192H330.752v136.192z m162.816 0h53.248v-136.192H493.568v136.192z m162.816 0h53.248v-136.192h-53.248v136.192z m0 0"  horiz-adv-x="1024" />

    
    <glyph glyph-name="eraser" unicode="&#58896;" d="M578.048 691.712l236.544-239.104-338.432-334.336H342.016l-169.472 169.472 405.504 403.968m0 95.232c-25.6 0-49.664-9.728-68.096-27.648l-404.992-402.432a95.3344 95.3344 0 0 1 0-135.168l197.12-199.168h212.992l366.592 366.592a95.3344 95.3344 0 0 1 0 135.168L645.12 760.832c-17.92 17.408-41.984 26.624-67.072 26.112z m0 0M373.76 118.27200000000005h525.824c31.744 0 47.616-15.872 47.616-47.616 0-31.744-15.872-47.616-47.616-47.616H373.76c-31.744 0-47.616 15.872-47.616 47.616 0 31.744 15.872 47.616 47.616 47.616z m0 0"  horiz-adv-x="1024" />

    
    <glyph glyph-name="circle-h" unicode="&#58897;" d="M512 359.424m-435.2 0a435.2 435.2 0 1 1 870.4 0 435.2 435.2 0 1 1-870.4 0Z"  horiz-adv-x="1024" />

    
    <glyph glyph-name="circle" unicode="&#58898;" d="M511.488-51.200000000000045c-240.128 0-435.2 195.072-435.2 435.2s195.072 435.2 435.2 435.2c240.128 0 435.2-195.072 435.2-435.2s-195.072-435.2-435.2-435.2z m0 834.56c-220.16 0-399.36-179.2-399.36-399.36s179.2-399.36 399.36-399.36 399.36 179.2 399.36 399.36-178.688 399.36-399.36 399.36z"  horiz-adv-x="1024" />

    
    <glyph glyph-name="font" unicode="&#58899;" d="M102.4 407.552l37.888 34.304-18.432-116.736H76.8l3.584 116.736h364.032l3.584-116.736h-44.544l-18.944 116.736 37.376-34.304H102.4z m169.984-351.744l93.696-9.728v-30.208H159.232v30.208l92.672 9.728h20.48z m-38.912 186.88c0 66.048 0 133.12-1.536 199.168h60.928c-1.024-64.512-1.024-131.584-1.024-199.168v-27.648c0-66.56 0-133.12 1.536-199.168h-61.44c1.536 65.024 1.536 131.584 1.536 199.168v27.648zM378.368 660.992l62.464 56.32-30.72-192.512H335.872l6.144 192.512h599.04l5.632-192.512h-73.728l-30.72 192.512 61.952-56.32H378.368z m279.552-579.584l153.6-15.872v-49.664H472.064v49.664l152.064 15.872h33.792zM593.92 389.632c0 109.056 0 218.624-2.048 327.68h100.864c-2.048-107.008-2.048-216.576-2.048-327.68v-45.568c0-109.056 0-219.136 2.048-328.192h-100.864c2.048 107.008 2.048 216.576 2.048 327.68v46.08z"  horiz-adv-x="1024" />

    
    <glyph glyph-name="line" unicode="&#58900;" d="M158.72 40.44799999999998c-9.216 0-18.432 4.096-24.064 11.776-10.24 13.312-8.192 32.768 5.632 43.008L846.336 643.5840000000001c13.312 10.24 32.768 8.192 43.008-5.632 10.24-13.312 8.192-32.768-5.632-43.008L177.664 46.591999999999985c-5.632-4.096-12.288-6.144-18.944-6.144z"  horiz-adv-x="1024" />

    
    <glyph glyph-name="text" unicode="&#58901;" d="M998.098824-97.27999999999997h-388.517648v46.983529c34.334118 2.409412 62.644706 6.625882 85.534118 13.251765 22.889412 6.625882 33.731765 14.456471 33.731765 24.094118 0 4.216471-0.602353 9.035294-1.204706 14.45647s-2.409412 10.842353-3.614118 15.058824l-77.703529 209.618823H317.44c-12.047059-30.72-22.287059-57.825882-30.117647-80.715294s-14.456471-43.971765-21.082353-63.247059c-6.023529-18.672941-9.637647-34.334118-12.047059-46.381176s-3.011765-21.684706-3.011765-28.912941c0-17.468235 13.854118-31.322353 41.562353-40.96s59.030588-15.661176 93.364706-16.865883v-46.983529H34.334118v46.983529c11.444706 1.204706 25.901176 3.614118 42.767058 7.830589s31.322353 9.637647 42.164706 16.865882c17.468235 12.047059 31.322353 24.094118 40.96 37.345882 9.637647 12.649412 19.275294 30.72 28.310589 53.609412 46.983529 117.458824 98.785882 249.374118 155.407058 395.745883S451.764706 736.978824 495.736471 851.425882h53.007058l312.018824-807.152941c6.625882-16.865882 13.854118-30.72 22.287059-41.562353 8.432941-10.842353 19.877647-21.082353 34.93647-30.72 10.24-6.023529 23.491765-11.444706 39.755294-15.661176s30.117647-6.625882 40.96-6.625883l-0.602352-46.983529z m-376.470589 382.494118L480.075294 647.830588l-139.745882-363.218823 281.298823 0.602353z"  horiz-adv-x="1024" />

    
    <glyph glyph-name="rect" unicode="&#58902;" d="M921.6-25.600000000000023H102.4V793.6h819.2v-819.2zM181.248 53.24800000000005h662.016V714.752H181.248v-661.504z"  horiz-adv-x="1024" />

    
    <glyph glyph-name="rect-h" unicode="&#58903;" d="M947.2 819.2v-870.4h-870.4v870.4z"  horiz-adv-x="1024" />

    
    <glyph glyph-name="pencil" unicode="&#58904;" d="M113.844706-97.27999999999997c-22.287059 0-43.369412 8.432941-59.030588 24.696471-19.275294 19.877647-28.310588 47.585882-22.889412 74.691764l33.129412 173.477647c4.818824 25.298824 16.865882 48.790588 35.538823 66.861177l586.089412 586.089412c48.188235 48.790588 133.12 48.790588 181.910588 0l88.545883-88.545883c24.094118-24.094118 37.345882-56.621176 37.345882-90.955294s-13.251765-66.861176-37.345882-90.955294l-586.089412-586.089412c-18.672941-18.672941-41.562353-30.72-66.861177-35.538823l-173.477647-33.129412c-6.625882 0-11.444706-0.602353-16.865882-0.602353zM777.035294 800.225882c-16.263529 0-31.924706-6.023529-43.971765-18.070588l-586.089411-586.089412c-9.035294-9.035294-15.058824-19.877647-17.468236-32.527058l-33.129411-174.08c-1.807059-7.830588 2.409412-13.251765 4.818823-15.661177 2.409412-2.409412 7.830588-6.023529 15.661177-4.818823l173.477647 33.129411c12.047059 2.409412 23.491765 8.432941 32.527058 17.468236l586.089412 586.089411c24.094118 24.094118 24.094118 63.849412 0 88.545883l-88.545882 88.545882a62.042353 62.042353 0 0 1-43.369412 17.468235zM401.769412 174.38117599999998a32.768 32.768 0 0 0-23.491765 56.018824L802.334118 655.058824a33.129412 33.129412 0 0 0 46.381176 0c12.649412-12.649412 12.649412-33.731765 0-46.381177l-424.05647-424.056471c-6.023529-6.625882-14.456471-10.24-22.889412-10.24zM82.040471 169.68282399999998l45.778823 47.887058 222.509177-212.630588-45.778824-47.947294zM68.668235 4.999529000000052l21.744941 24.997647 70.475295-61.199058-21.684706-24.997647z"  horiz-adv-x="1024" />

    
    <glyph glyph-name="line1" unicode="&#58905;" d="M149.7088 690.944l27.2896 27.0848 709.12-715.1616-27.2896-27.0336zM153.088 716.288m-56.32 0a56.32 56.32 0 1 1 112.64 0 56.32 56.32 0 1 1-112.64 0ZM870.912-9.216000000000008m-56.32 0a56.32 56.32 0 1 1 112.64 0 56.32 56.32 0 1 1-112.64 0Z"  horiz-adv-x="1024" />

    


  </font>
</defs>
</svg>
